{"title":"Toasty Tales S01E00 Pilot 720p AMZN WEBRip HEVC 2CH x265","uid":15611226,"size":80896289,"categoryP":"video","categoryS":"tv_shows","magnet":"?xt=urn:btih:15dc0cfe48f3d2502311d9e255ecc436be3e3b6f&amp;dn=Toasty+Tales+S01E00+Pilot+720p+AMZN+WEBRip+HEVC+2CH+x265&amp;tr=udp%3A%2F%2Ftracker.leechers-paradise.org%3A6969&amp;tr=udp%3A%2F%2Fzer0day.ch%3A1337&amp;tr=udp%3A%2F%2Fopen.demonii.com%3A1337&amp;tr=udp%3A%2F%2Ftracker.coppersurfer.tk%3A6969&amp;tr=udp%3A%2F%2Fexodus.desync.com%3A6969","seeders":0,"leechers":2,"uploader":"nayhtut","files":1,"time":1471783757,"description":"[Screenshots]\r\n \nhttps://s14.postimg.org/g8ygi6sep/Toasty_Tales_S01_E00_Amazon_Pilot_720p_AMZN_WEBRi.jpg \nhttps://s14.postimg.org/9wjb8cpch/Toasty_Tales_S01_E00_Amazon_Pilot_720p_AMZN_WEBRi.jpg\r\n\r\n\r\nSource:  Toasty Tales S01E00 Pilot 1080p AMZN WEBRip DD5.1 x264-CasStudio (383 MB)\r\n\r\n\r\n__--__--__--__--__--__--__--__--__--__--__--__--__--\r\n\r\n\r\nComplete name                            : Toasty.Tales.S01E00.Amazon.Pilot.720p.AMZN.WEBRip.HEVC.2CH.x265.mkv\r\nFormat                                   : Matroska\r\nFormat version                           : Version 4 / Version 2\r\nFile size                                : 77.1 MiB\r\nDuration                                 : 12mn 6s\r\nOverall bit rate                         : 891 Kbps\r\nWriting application                      : Lavf57.25.100\r\nWriting library                          : Lavf57.25.100\r\n\r\nVideo\r\n\r\nID                                       : 1\r\nFormat                                   : V_MPEGH/ISO/HEVC\r\nCodec ID                                 : V_MPEGH/ISO/HEVC\r\nDuration                                 : 12mn 6s\r\nBit rate                                 : 681 Kbps\r\nWidth                                    : 1 274 pixels\r\nHeight                                   : 720 pixels\r\nDisplay aspect ratio                     : 16:9\r\nFrame rate                               : 25.000 fps\r\nBits/(Pixel*Frame)                       : 0.030\r\nStream size                              : 59.0 MiB (76%)\r\nWriting library                          : Lavc57.48.101 libx265\r\nLanguage                                 : English\r\nDefault                                  : Yes\r\nForced                                   : No\r\nDURATION                                 : 00:12:06.571000000\r\nNUMBER_OF_FRAMES                         : 17419\r\nNUMBER_OF_BYTES                          : 343268346\r\n_STATISTICS_WRITING_APP                  : mkvmerge v9.3.1 ('Mask Machine') 64bit\r\n_STATISTICS_WRITING_DATE_UTC             : 2016-08-20 19:28:51\r\n_STATISTICS_TAGS                         : BPS DURATION NUMBER_OF_FRAMES NUMBER_OF_BYTES\r\n\r\nAudio\r\n\r\nID                                       : 2\r\nFormat                                   : AC-3\r\nFormat/Info                              : Audio Coding 3\r\nMode extension                           : CM (complete main)\r\nFormat settings, Endianness              : Big\r\nCodec ID                                 : A_AC3\r\nDuration                                 : 12mn 6s\r\nBit rate mode                            : Constant\r\nBit rate                                 : 192 Kbps\r\nChannel(s)                               : 2 channels\r\nChannel positions                        : Front: L R\r\nSampling rate                            : 48.0 KHz\r\nBit depth                                : 16 bits\r\nCompression mode                         : Lossy\r\nStream size                              : 16.6 MiB (22%)\r\nWriting library                          : Lavc57.24.102 ac3\r\nLanguage                                 : English\r\nDefault                                  : Yes\r\nForced                                   : No\r\nDURATION                                 : 00:12:06.559000000\r\nNUMBER_OF_FRAMES                         : 22702\r\nNUMBER_OF_BYTES                          : 58117120\r\n_STATISTICS_WRITING_APP                  : mkvmerge v9.3.1 ('Mask Machine') 64bit\r\n_STATISTICS_WRITING_DATE_UTC             : 2016-08-20 19:28:51\r\n_STATISTICS_TAGS                         : BPS DURATION NUMBER_OF_FRAMES NUMBER_OF_BYTES\r\n\r\nText\r\n\r\nID                                       : 3\r\nFormat                                   : ASS\r\nCodec ID                                 : S_TEXT/ASS\r\nCodec ID/Info                            : Advanced Sub Station Alpha\r\nCompression mode                         : Lossless\r\nWriting library                          : Lavc57.48.101 ssa\r\nLanguage                                 : English\r\nDefault                                  : No\r\nForced                                   : No\r\nDURATION                                 : 00:11:21.833000000\r\nNUMBER_OF_FRAMES                         : 278\r\nNUMBER_OF_BYTES                          : 7635\r\n_STATISTICS_WRITING_APP                  : mkvmerge v9.3.1 ('Mask Machine') 64bit\r\n_STATISTICS_WRITING_DATE_UTC             : 2016-08-20 19:28:51\r\n_STATISTICS_TAGS                         : BPS DURATION NUMBER_OF_FRAMES NUMBER_OF_BYTES\r\n\r\nMenu\r\n\r\n00:00:00.000                             : :Amazon Original\r\n00:00:05.000                             : :Opening Credits\r\n00:00:24.000                             : :Our Side is Batter\r\n00:00:28.000                             : :Waffle dreams about pancakes\r\n00:03:45.000                             : :The Marshmallows enter the mine as Glenn tries to move their tents\r\n00:07:01.000                             : :Glenn tries to move the tents again\r\n00:07:23.000                             : :Waffle and Pants try to take the Golden Lunchbox\r\n00:08:52.000                             : :The Marshmallows make their special pancakes\r\n00:10:36.000                             : :The Grunkadunk takes back his lunchbox\r\n00:11:18.000                             : :End Credits\r\n\r\n__--__--__--__--__--__--__--__--__--__--__--__--__--\r\n\r\n\r\nIMDb: http://www.imdb.com/title/tt5589182\r\n\r\n__--__--__--__--__--__--__--__--__--__--__--__--__--\r\n\r\n\r\n\r\nAfter adding torrent with maget link,\r\n\r\nplease add this  following trackers list to the torrent for better seeds.\r\n\r\nudp://tracker.coppersurfer.tk:6969/announce\r\n\r\nudp://tracker.opentrackr.org:1337/announce\r\n \nhttp://tracker.baravik.org:6970/announce\r\n \nhttp://tracker2.wasabii.com.tw:6969/announce\r\n\r\nudp://9.rarbg.me:2710/announce\r\n\r\n__--__--__--__--__--__--__--__--__--__--__--__--__--\r\n\r\n\r\n\r\nEnjoy!","torrent":{"xt":"urn:btih:15dc0cfe48f3d2502311d9e255ecc436be3e3b6f","amp;dn":"Toasty+Tales+S01E00+Pilot+720p+AMZN+WEBRip+HEVC+2CH+x265","amp;tr":["udp%3A%2F%2Ftracker.leechers-paradise.org%3A6969","udp%3A%2F%2Fzer0day.ch%3A1337","udp%3A%2F%2Fopen.demonii.com%3A1337","udp%3A%2F%2Ftracker.coppersurfer.tk%3A6969","udp%3A%2F%2Fexodus.desync.com%3A6969"],"infoHash":"15dc0cfe48f3d2502311d9e255ecc436be3e3b6f","infoHashBuffer":{"type":"Buffer","data":[21,220,12,254,72,243,210,80,35,17,217,226,85,236,196,54,190,62,59,111]},"announce":[],"urlList":[]}}